<svg width="32" height="32" viewBox="0 0 32 32" fill="none" xmlns="http://www.w3.org/2000/svg">
<rect width="32" height="32" rx="4" fill="#04B7B1"/>
<mask id="mask0_24422_91316" style="mask-type:alpha" maskUnits="userSpaceOnUse" x="4" y="4" width="24" height="24">
<rect x="4" y="4" width="24" height="24" fill="#D9D9D9"/>
</mask>
<g mask="url(#mask0_24422_91316)">
<path d="M16 20C17.25 20 18.3127 19.5627 19.188 18.688C20.0627 17.8127 20.5 16.75 20.5 15.5C20.5 14.25 20.0627 13.1873 19.188 12.312C18.3127 11.4373 17.25 11 16 11C14.75 11 13.6873 11.4373 12.812 12.312C11.9373 13.1873 11.5 14.25 11.5 15.5C11.5 16.75 11.9373 17.8127 12.812 18.688C13.6873 19.5627 14.75 20 16 20ZM16 18.2C15.25 18.2 14.6127 17.9373 14.088 17.412C13.5627 16.8873 13.3 16.25 13.3 15.5C13.3 14.75 13.5627 14.1123 14.088 13.587C14.6127 13.0623 15.25 12.8 16 12.8C16.75 12.8 17.3877 13.0623 17.913 13.587C18.4377 14.1123 18.7 14.75 18.7 15.5C18.7 16.25 18.4377 16.8873 17.913 17.412C17.3877 17.9373 16.75 18.2 16 18.2ZM16 23C13.5667 23 11.35 22.3207 9.35 20.962C7.35 19.604 5.9 17.7833 5 15.5C5.9 13.2167 7.35 11.3957 9.35 10.037C11.35 8.679 13.5667 8 16 8C18.4333 8 20.65 8.679 22.65 10.037C24.65 11.3957 26.1 13.2167 27 15.5C26.1 17.7833 24.65 19.604 22.65 20.962C20.65 22.3207 18.4333 23 16 23ZM16 21C17.8833 21 19.6127 20.504 21.188 19.512C22.7627 18.5207 23.9667 17.1833 24.8 15.5C23.9667 13.8167 22.7627 12.479 21.188 11.487C19.6127 10.4957 17.8833 10 16 10C14.1167 10 12.3873 10.4957 10.812 11.487C9.23733 12.479 8.03333 13.8167 7.2 15.5C8.03333 17.1833 9.23733 18.5207 10.812 19.512C12.3873 20.504 14.1167 21 16 21Z" fill="white"/>
</g>
</svg>
