<svg width="38" height="38" viewBox="0 0 38 38" fill="none" xmlns="http://www.w3.org/2000/svg">
<path d="M32.3337 13.4837V5.66706H24.5171L19.0004 0.150391L13.4837 5.66706H5.66706V13.4837L0.150391 19.0004L5.66706 24.5171V32.3337H13.4837L19.0004 37.8504L24.5171 32.3337H32.3337V24.5171L37.8504 19.0004L32.3337 13.4837ZM19.0004 29.0004C13.4837 29.0004 9.00039 24.5171 9.00039 19.0004C9.00039 13.4837 13.4837 9.00039 19.0004 9.00039C24.5171 9.00039 29.0004 13.4837 29.0004 19.0004C29.0004 24.5171 24.5171 29.0004 19.0004 29.0004ZM19.0004 12.3337C15.3171 12.3337 12.3337 15.3171 12.3337 19.0004C12.3337 22.6837 15.3171 25.6671 19.0004 25.6671C22.6837 25.6671 25.6671 22.6837 25.6671 19.0004C25.6671 15.3171 22.6837 12.3337 19.0004 12.3337Z" fill="#04B7B1"/>
</svg>
