<svg width="40" height="34" viewBox="0 0 40 34" fill="none" xmlns="http://www.w3.org/2000/svg">
<rect x="0.25" y="0.25" width="39.5" height="33.5" rx="1.75" fill="#04B7B1"/>
<rect x="0.25" y="0.25" width="39.5" height="33.5" rx="1.75" stroke="white" stroke-width="0.5"/>
<mask id="mask0_24867_65907" style="mask-type:alpha" maskUnits="userSpaceOnUse" x="8" y="5" width="24" height="24">
<rect x="8" y="5" width="24" height="24" fill="#D9D9D9"/>
</mask>
<g mask="url(#mask0_24867_65907)">
<path d="M14 25C13.45 25 12.9793 24.8043 12.588 24.413C12.196 24.021 12 23.55 12 23V20H14V23H26V20H28V23C28 23.55 27.8043 24.021 27.413 24.413C27.021 24.8043 26.55 25 26 25H14ZM19 21V12.85L16.4 15.45L15 14L20 9L25 14L23.6 15.45L21 12.85V21H19Z" fill="white"/>
</g>
</svg>
